<svg width="114" height="64" viewBox="0 0 114 64" fill="none" xmlns="http://www.w3.org/2000/svg">
<path fill-rule="evenodd" clip-rule="evenodd" d="M51.7457 2.17309C52.815 2.05782 53.8898 2 54.9653 2C66.8819 1.99991 77.1775 8.9404 82.0311 19H79.7763C78.8763 17.2887 77.7962 15.6656 76.5472 14.16C74.1422 15.4629 71.592 16.4777 68.9495 17.1837C69.1228 17.7865 69.2852 18.392 69.4364 19H67.3607C67.2457 18.5573 67.1245 18.1161 66.9972 17.6764C63.377 18.5021 59.6796 18.9432 55.9665 18.992V19H53.9642V18.992C50.2513 18.9431 46.5538 18.502 42.9335 17.6764C42.8063 18.1161 42.6851 18.5573 42.57 19H40.4944C40.6457 18.392 40.808 17.7865 40.9813 17.1837C38.3386 16.4781 35.7884 15.4631 33.3835 14.16C32.1344 15.6656 31.0543 17.2887 30.1543 19H27.9327C29.0779 16.6086 30.5612 14.3303 32.3874 12.2336C32.7464 11.8265 33.1136 11.4306 33.4887 11.0461C37.5219 6.91761 42.6603 4.04016 48.2877 2.75882C48.4725 2.71614 48.6575 2.67534 48.8423 2.63667C49.7974 2.43742 50.7656 2.27321 51.7457 2.17309ZM27.51 44C29.2346 47.9515 31.841 51.5922 35.3079 54.6122C47.2827 65.0438 65.3078 64.3497 76.4451 53.0283C76.8209 52.6438 77.188 52.2479 77.5464 51.8408C79.6173 49.4822 81.2878 46.8336 82.5182 44H80.3124C79.3167 46.1083 78.055 48.097 76.5472 49.9144C74.1423 48.6113 71.5922 47.5963 68.9495 46.8906C69.2247 45.9337 69.4721 44.9697 69.6916 44H67.6274C67.4373 44.8039 67.2272 45.6035 66.9972 46.398C63.377 45.5724 59.6796 45.1313 55.9665 45.0824V44H53.9642V45.0824C50.2512 45.1312 46.5538 45.5723 42.9335 46.398C42.7036 45.6035 42.4935 44.8039 42.3034 44H40.2392C40.4586 44.9697 40.7061 45.9337 40.9813 46.8906C38.3387 47.5965 35.7886 48.6114 33.3835 49.9144C31.8759 48.0969 30.6143 46.1082 29.6186 44H27.51ZM35.1722 12.1995C35.055 12.3143 34.9375 12.4293 34.8232 12.548C34.8082 12.5635 34.7934 12.5804 34.7781 12.598C34.7638 12.6143 34.749 12.6312 34.7331 12.6481C36.9164 13.7763 39.2168 14.6616 41.593 15.2884C42.8288 11.3466 45.0279 7.77518 47.9914 4.89748C47.9508 4.90799 47.9103 4.9175 47.8697 4.92701C47.8292 4.93652 47.7886 4.94604 47.7481 4.95655C47.5938 4.99803 47.4411 5.04268 47.2881 5.08744C47.2306 5.10426 47.1731 5.12109 47.1154 5.13777C46.8631 5.21086 46.6118 5.28496 46.3625 5.36506C46.1502 5.43414 45.941 5.50723 45.7318 5.58032C45.4865 5.66643 45.2412 5.75254 44.9989 5.84465C44.7897 5.92475 44.5834 6.00785 44.3762 6.09296C44.1379 6.19308 43.8997 6.29321 43.6644 6.39333C43.4581 6.48345 43.2499 6.57856 43.0497 6.67368C42.8184 6.78282 42.5881 6.89396 42.3599 7.0091C42.1596 7.11123 41.9594 7.21573 41.7592 7.32249C41.5356 7.44264 41.313 7.56579 41.0914 7.69195C40.8932 7.80471 40.6963 7.9196 40.5007 8.03637C40.2835 8.16453 40.0682 8.2997 39.854 8.43687C39.6618 8.56003 39.4706 8.68418 39.2813 8.81234C39.1058 8.92717 38.9323 9.05168 38.7597 9.17553C38.7247 9.20071 38.6896 9.22585 38.6546 9.25088C38.4684 9.38105 38.2832 9.51421 38.101 9.65138C37.8947 9.80557 37.6945 9.96577 37.4943 10.126C37.4671 10.1476 37.4399 10.1693 37.4127 10.1909C37.2616 10.3113 37.1103 10.4318 36.9627 10.5565C36.7789 10.7097 36.6002 10.868 36.4212 11.0268C36.4071 11.0392 36.3931 11.0517 36.379 11.0641C36.3419 11.0971 36.3047 11.13 36.2676 11.1629C36.1334 11.2817 35.9994 11.4004 35.8684 11.5227C35.7053 11.6746 35.5459 11.8317 35.3864 11.9889C35.3599 12.0151 35.3333 12.0412 35.3068 12.0674C35.2621 12.1115 35.2172 12.1555 35.1722 12.1995ZM47.2891 58.9932C47.4418 59.0389 47.5938 59.0844 47.7421 59.1218C47.7869 59.134 47.8321 59.1447 47.8772 59.1553C47.9137 59.1639 47.9501 59.1725 47.9864 59.1819C45.0231 56.304 42.824 52.7327 41.588 48.791C39.2116 49.4179 36.9112 50.3036 34.7281 51.4323C34.7454 51.4502 34.7624 51.4688 34.7794 51.4876C34.7909 51.5002 34.8025 51.5129 34.8142 51.5254C34.9259 51.6407 35.0406 51.7529 35.1552 51.865C35.2028 51.9116 35.2504 51.9582 35.2977 52.005C35.3327 52.0394 35.3677 52.0739 35.4026 52.1084C35.5538 52.2576 35.7051 52.4069 35.8604 52.5517C35.9876 52.6697 36.1178 52.7848 36.2482 52.9001C36.2881 52.9355 36.3281 52.9708 36.368 53.0062C36.3923 53.0278 36.4165 53.0493 36.4408 53.0709C36.6106 53.2217 36.7805 53.3725 36.9557 53.5179C37.1241 53.6591 37.2954 53.7955 37.4677 53.9328L37.4823 53.9444C37.6845 54.1066 37.8877 54.2678 38.095 54.424C38.2752 54.5622 38.4584 54.6933 38.6416 54.8245C38.8508 54.9747 39.0621 55.1249 39.2753 55.2691C39.4625 55.3952 39.6528 55.5184 39.843 55.6395C40.0592 55.7787 40.2755 55.9149 40.4957 56.047C40.689 56.1632 40.8792 56.2773 41.0794 56.3884C41.3037 56.5166 41.5279 56.6408 41.7542 56.7619C41.9544 56.871 42.1546 56.9712 42.3549 57.0713C42.5901 57.1874 42.8224 57.2996 43.0557 57.4097C43.2579 57.5052 43.4611 57.5979 43.6654 57.6881C43.9027 57.7882 44.1419 57.8883 44.3812 57.9884C44.5874 58.0725 44.7927 58.1556 45.0009 58.2347C45.2442 58.3279 45.4905 58.415 45.7368 58.5001C45.945 58.5732 46.1532 58.6463 46.3645 58.7143C46.6061 58.7926 46.8515 58.8644 47.0961 58.936L47.1224 58.9436C47.1779 58.9599 47.2336 58.9766 47.2891 58.9932ZM43.5623 48.3094C45.925 54.9126 49.6803 59.3842 53.9642 59.9929V47.0849C50.4641 47.1341 46.9782 47.5445 43.5623 48.3094ZM43.5623 15.765C46.9782 16.5303 50.464 16.9407 53.9642 16.9895V4.08146C49.6803 4.69022 45.925 9.16177 43.5623 15.765ZM62.6537 5.08479C62.4966 5.03784 62.3389 4.99072 62.1807 4.95154C62.1359 4.93936 62.0907 4.92872 62.0456 4.91808C62.0091 4.90947 61.9727 4.90087 61.9364 4.89147C64.9025 7.76817 67.1044 11.3392 68.3428 15.2814C70.7192 14.6545 73.0196 13.7687 75.2027 12.6401C75.1854 12.6222 75.1684 12.6036 75.1514 12.5849C75.1399 12.5722 75.1283 12.5595 75.1166 12.547C75.0049 12.4317 74.8901 12.3194 74.7756 12.2073C74.728 12.1607 74.6804 12.1141 74.633 12.0674C74.5981 12.033 74.5631 11.9985 74.5282 11.964C74.377 11.8148 74.2257 11.6655 74.0704 11.5207C73.9432 11.4027 73.813 11.2875 73.6826 11.1722C73.6427 11.1369 73.6027 11.1016 73.5628 11.0661C73.5385 11.0446 73.5143 11.0231 73.49 11.0016C73.3202 10.8508 73.1503 10.6999 72.9751 10.5545C72.8157 10.4199 72.6529 10.2905 72.4906 10.1614L72.4485 10.128C72.2453 9.96577 72.0431 9.80457 71.8368 9.64938C71.6556 9.51221 71.4724 9.38004 71.2882 9.24888C71.0789 9.09869 70.8687 8.94951 70.6555 8.80533C70.4682 8.67917 70.278 8.55602 70.0878 8.43487C69.8716 8.2957 69.6553 8.15953 69.4351 8.02736C69.2418 7.91122 69.0516 7.79708 68.8514 7.68594C68.6271 7.55778 68.4029 7.43363 68.1766 7.31248C67.9764 7.20336 67.7762 7.10326 67.576 7.00315L67.5759 7.00309C67.3406 6.88695 67.1084 6.77481 66.8751 6.66467C66.6729 6.56918 66.4696 6.47644 66.2654 6.38632C66.0281 6.2862 65.7889 6.18608 65.5496 6.08595C65.3433 6.00185 65.1381 5.91874 64.9299 5.83965C64.6866 5.74653 64.4403 5.65942 64.194 5.57432C63.9858 5.50122 63.7775 5.42813 63.5663 5.36005C63.3246 5.28175 63.0793 5.20998 62.8347 5.13844L62.8084 5.13076C62.7569 5.11565 62.7053 5.10023 62.6537 5.08479ZM66.3685 15.765C64.0058 9.16177 60.2505 4.69022 55.9665 4.08146V16.9895C59.4667 16.9403 62.9526 16.5299 66.3685 15.765ZM55.9665 47.0849V59.9929C60.2505 59.3842 64.0058 54.9126 66.3685 48.3094C62.9526 47.5441 59.4668 47.1337 55.9665 47.0849ZM74.7541 51.8791C74.8727 51.7627 74.9915 51.6462 75.1076 51.5264C75.1366 51.4964 75.1646 51.4613 75.1977 51.4253C73.0144 50.2971 70.714 49.4118 68.3378 48.785C67.102 52.7268 64.9028 56.2982 61.9394 59.1759C61.98 59.1654 62.0205 59.1559 62.061 59.1464C62.1016 59.1369 62.1422 59.1273 62.1827 59.1168C62.3939 59.0598 62.6042 58.9977 62.8134 58.9356C63.0687 58.8625 63.319 58.7884 63.5693 58.7073C63.7804 58.6393 63.9885 58.5662 64.1966 58.4932L64.197 58.4931C64.4433 58.408 64.6886 58.3208 64.9329 58.2277C65.1275 58.1538 65.3204 58.0755 65.514 57.9969L65.5546 57.9804C65.7929 57.8803 66.0311 57.7802 66.2664 57.68C66.4726 57.5899 66.6809 57.4948 66.8811 57.3997C67.1124 57.2906 67.3426 57.1794 67.5709 57.0643C67.7711 56.9622 67.9714 56.8577 68.1716 56.7509C68.3959 56.6307 68.6187 56.5076 68.8404 56.3814C68.9713 56.3063 69.0995 56.2308 69.2295 56.1543C69.2954 56.1155 69.3617 56.0764 69.429 56.037C69.6467 55.9082 69.8625 55.7747 70.0768 55.6365C70.269 55.5144 70.4602 55.3902 70.6494 55.262C70.8251 55.1472 70.9986 55.0226 71.1712 54.8988C71.2062 54.8736 71.2412 54.8485 71.2762 54.8235C71.4624 54.6933 71.6476 54.5602 71.8298 54.423C72.036 54.2689 72.2361 54.1087 72.4363 53.9486L72.4365 53.9484C72.4578 53.9314 72.4792 53.9144 72.5005 53.8974C72.6573 53.7724 72.8139 53.6476 72.9681 53.5189C73.1508 53.3657 73.3292 53.2075 73.5081 53.0488L73.5538 53.0082C73.627 52.9415 73.7004 52.8766 73.7735 52.812C73.8703 52.7263 73.9667 52.6411 74.0614 52.5527C74.2251 52.4001 74.3852 52.2424 74.5447 52.0851C74.5715 52.0587 74.5983 52.0323 74.625 52.006C74.6679 51.9636 74.711 51.9214 74.7541 51.8791Z" fill="#03A9F4"/>
<path d="M6.25098 39L2.52441 28.2686H2.4541C2.55371 29.8623 2.60352 31.3564 2.60352 32.751V39H0.696289V26.1504H3.6582L7.22656 36.3721H7.2793L10.9531 26.1504H13.9238V39H11.9023V32.6455C11.9023 32.0068 11.917 31.1748 11.9463 30.1494C11.9814 29.124 12.0107 28.5029 12.0342 28.2861H11.9639L8.10547 39H6.25098ZM25.2793 39L23.9961 35.4316H19.083L17.8262 39H15.6113L20.4189 26.0977H22.7041L27.5117 39H25.2793ZM23.4424 33.6211L22.2383 30.123C22.1504 29.8887 22.0273 29.5195 21.8691 29.0156C21.7168 28.5117 21.6113 28.1426 21.5527 27.9082C21.3945 28.6289 21.1631 29.417 20.8584 30.2725L19.6982 33.6211H23.4424ZM39.0166 39H36.582L32.5479 33.1816L31.3086 34.1924V39H29.208V26.1504H31.3086V32.2852C31.8828 31.582 32.4541 30.9053 33.0225 30.2549L36.4941 26.1504H38.8848C36.6406 28.7871 35.0322 30.665 34.0596 31.7842L39.0166 39ZM47.9902 39H40.7217V26.1504H47.9902V27.9258H42.8223V31.4238H47.665V33.1816H42.8223V37.2158H47.9902V39ZM56.3311 39L52.6045 28.2686H52.5342C52.6338 29.8623 52.6836 31.3564 52.6836 32.751V39H50.7764V26.1504H53.7383L57.3066 36.3721H57.3594L61.0332 26.1504H64.0039V39H61.9824V32.6455C61.9824 32.0068 61.9971 31.1748 62.0264 30.1494C62.0615 29.124 62.0908 28.5029 62.1143 28.2861H62.0439L58.1855 39H56.3311ZM74.6562 39H67.3877V26.1504H74.6562V27.9258H69.4883V31.4238H74.3311V33.1816H69.4883V37.2158H74.6562V39ZM81.8809 39H79.7803V27.9521H76.001V26.1504H85.6602V27.9521H81.8809V39ZM89.7383 32.127H91.1973C92.1758 32.127 92.8848 31.9453 93.3242 31.582C93.7637 31.2188 93.9834 30.6797 93.9834 29.9648C93.9834 29.2383 93.7461 28.7168 93.2715 28.4004C92.7969 28.084 92.082 27.9258 91.127 27.9258H89.7383V32.127ZM89.7383 33.8672V39H87.6377V26.1504H91.2676C92.9258 26.1504 94.1533 26.4609 94.9502 27.082C95.7471 27.7031 96.1455 28.6406 96.1455 29.8945C96.1455 31.4941 95.3135 32.6338 93.6494 33.3135L97.2793 39H94.8887L91.8125 33.8672H89.7383ZM99.1514 39V26.1504H101.252V39H99.1514ZM113.161 30.0352C113.161 31.377 112.722 32.4053 111.843 33.1201C110.964 33.835 109.713 34.1924 108.09 34.1924H106.754V39H104.653V26.1504H108.354C109.959 26.1504 111.16 26.4785 111.957 27.1348C112.76 27.791 113.161 28.7578 113.161 30.0352ZM106.754 32.4258H107.87C108.948 32.4258 109.739 32.2383 110.243 31.8633C110.747 31.4883 110.999 30.9023 110.999 30.1055C110.999 29.3672 110.773 28.8164 110.322 28.4531C109.871 28.0898 109.168 27.9082 108.213 27.9082H106.754V32.4258Z" fill="#6C6C6C"/>
</svg>
